<?xml version="1.0" encoding="UTF-8" standalone="no"?>
<!DOCTYPE svg PUBLIC "-//W3C//DTD SVG 1.0//EN" "http://www.w3.org/TR/2001/PR-SVG-20010719/DTD/svg10.dtd">
<svg width="49cm" height="33cm" viewBox="-1 -1 962 642" xmlns="http://www.w3.org/2000/svg" xmlns:xlink="http://www.w3.org/1999/xlink">
  <g>
    <rect style="fill: #ffffff" x="0" y="0" width="960" height="640"/>
    <rect style="fill: none; fill-opacity:0; stroke-width: 2; stroke: #000000" x="0" y="0" width="960" height="640"/>
  </g>
  <g>
    <rect style="fill: #ffffff" x="20" y="20" width="260" height="600"/>
    <rect style="fill: none; fill-opacity:0; stroke-width: 2; stroke: #000000" x="20" y="20" width="260" height="600"/>
  </g>
  <g>
    <rect style="fill: #ffffff" x="40" y="40" width="100" height="40"/>
    <rect style="fill: none; fill-opacity:0; stroke-width: 2; stroke: #000000" x="40" y="40" width="100" height="40"/>
  </g>
  <g>
    <rect style="fill: #ffffff" x="140" y="40" width="120" height="40"/>
    <rect style="fill: none; fill-opacity:0; stroke-width: 2; stroke: #000000" x="140" y="40" width="120" height="40"/>
  </g>
  <text font-size="12.8" style="fill: #000000;text-anchor:start;font-family:sans-serif;font-style:normal;font-weight:normal" x="61.8622" y="61.9298">
    <tspan x="61.8622" y="61.9298">Data sets</tspan>
  </text>
  <text font-size="12.8" style="fill: #000000;text-anchor:start;font-family:sans-serif;font-style:normal;font-weight:normal" x="200" y="60">
    <tspan x="200" y="60"></tspan>
  </text>
  <text font-size="12.8" style="fill: #000000;text-anchor:start;font-family:sans-serif;font-style:normal;font-weight:normal" x="160" y="60">
    <tspan x="160" y="60">Predefined</tspan>
    <tspan x="160" y="76">selections</tspan>
  </text>
  <g>
    <rect style="fill: #ffffff" x="40" y="80" width="220" height="160"/>
    <rect style="fill: none; fill-opacity:0; stroke-width: 2; stroke: #000000" x="40" y="80" width="220" height="160"/>
  </g>
  <line style="fill: none; fill-opacity:0; stroke-width: 2; stroke: #000000" x1="150" y1="160" x2="150" y2="160"/>
  <text font-size="12.8" style="fill: #000000;text-anchor:start;font-family:sans-serif;font-style:normal;font-weight:normal" x="60" y="100">
    <tspan x="60" y="100">Data set name 1</tspan>
    <tspan x="60" y="116"></tspan>
    <tspan x="60" y="132">Data set name 2</tspan>
    <tspan x="60" y="148"></tspan>
    <tspan x="60" y="164">Data set name 3</tspan>
  </text>
  <g>
    <rect style="fill: #ffffff" x="40" y="240" width="220" height="40"/>
    <rect style="fill: none; fill-opacity:0; stroke-width: 2; stroke: #000000" x="40" y="240" width="220" height="40"/>
  </g>
  <text font-size="12.8" style="fill: #000000;text-anchor:start;font-family:sans-serif;font-style:normal;font-weight:normal" x="83.4056" y="266.688">
    <tspan x="83.4056" y="266.688">Loaded selections</tspan>
  </text>
  <g>
    <rect style="fill: #ffffff" x="40" y="280" width="220" height="240"/>
    <rect style="fill: none; fill-opacity:0; stroke-width: 2; stroke: #000000" x="40" y="280" width="220" height="240"/>
  </g>
  <g>
    <rect style="fill: #ffffff" x="40" y="520" width="220" height="40"/>
    <rect style="fill: none; fill-opacity:0; stroke-width: 2; stroke: #000000" x="40" y="520" width="220" height="40"/>
  </g>
  <text font-size="12.8" style="fill: #000000;text-anchor:start;font-family:sans-serif;font-style:normal;font-weight:normal" x="80" y="540">
    <tspan x="80" y="540">Upload selections</tspan>
  </text>
  <text font-size="12.8" style="fill: #000000;text-anchor:start;font-family:sans-serif;font-style:normal;font-weight:normal" x="120" y="300">
    <tspan x="120" y="300"></tspan>
  </text>
  <text font-size="12.8" style="fill: #000000;text-anchor:start;font-family:sans-serif;font-style:normal;font-weight:normal" x="40" y="300">
    <tspan x="40" y="300"></tspan>
  </text>
  <text font-size="12.8" style="fill: #000000;text-anchor:start;font-family:sans-serif;font-style:normal;font-weight:normal" x="40" y="280">
    <tspan x="40" y="280"></tspan>
  </text>
  <text font-size="12.8" style="fill: #000000;text-anchor:start;font-family:sans-serif;font-style:normal;font-weight:normal" x="55.5418" y="300">
    <tspan x="55.5418" y="300">Selection  Group   Description</tspan>
  </text>
  <g>
    <rect style="fill: #ffffff" x="320" y="40" width="220" height="220"/>
    <rect style="fill: none; fill-opacity:0; stroke-width: 2; stroke: #000000" x="320" y="40" width="220" height="220"/>
  </g>
  <g>
    <rect style="fill: #ffffff" x="560" y="40" width="220" height="220"/>
    <rect style="fill: none; fill-opacity:0; stroke-width: 2; stroke: #000000" x="560" y="40" width="220" height="220"/>
  </g>
  <g>
    <rect style="fill: #ffffff" x="280" y="20" width="20" height="600"/>
    <rect style="fill: none; fill-opacity:0; stroke-width: 2; stroke: #000000" x="280" y="20" width="20" height="600"/>
  </g>
  <g>
    <rect style="fill: #ffffff" x="820" y="20" width="120" height="600"/>
    <rect style="fill: none; fill-opacity:0; stroke-width: 2; stroke: #000000" x="820" y="20" width="120" height="600"/>
  </g>
  <g>
    <rect style="fill: #ffffff" x="800" y="20" width="20" height="600"/>
    <rect style="fill: none; fill-opacity:0; stroke-width: 2; stroke: #000000" x="800" y="20" width="20" height="600"/>
  </g>
  <text font-size="12.8" style="fill: #000000;text-anchor:start;font-family:sans-serif;font-style:normal;font-weight:normal" x="420" y="160">
    <tspan x="420" y="160">Plot1</tspan>
  </text>
  <text font-size="12.8" style="fill: #000000;text-anchor:start;font-family:sans-serif;font-style:normal;font-weight:normal" x="660" y="160">
    <tspan x="660" y="160">Plot2</tspan>
  </text>
  <text font-size="12.8" style="fill: #000000;text-anchor:start;font-family:sans-serif;font-style:normal;font-weight:normal" x="840" y="160">
    <tspan x="840" y="160">One or </tspan>
    <tspan x="840" y="176">more</tspan>
    <tspan x="840" y="192">choropleths</tspan>
  </text>
  <text font-size="12.8" style="fill: #000000;text-anchor:start;font-family:sans-serif;font-style:normal;font-weight:normal" x="440" y="440">
    <tspan x="440" y="440">(More plots may flow into this area)</tspan>
  </text>
  <text font-size="12.8" style="fill: #000000;text-anchor:start;font-family:sans-serif;font-style:normal;font-weight:normal" x="440" y="597.854">
    <tspan x="440" y="597.854">(Scroll up to select more choropleths)</tspan>
  </text>
  <text font-size="12.8" style="fill: #000000;text-anchor:start;font-family:sans-serif;font-style:normal;font-weight:normal" x="320" y="40">
    <tspan x="320" y="40"></tspan>
  </text>
  <text font-size="12.8" style="fill: #000000;text-anchor:start;font-family:sans-serif;font-style:normal;font-weight:normal" x="322" y="34">
    <tspan x="322" y="34">Plot1 title</tspan>
  </text>
  <text font-size="12.8" style="fill: #000000;text-anchor:start;font-family:sans-serif;font-style:normal;font-weight:normal" x="562" y="33">
    <tspan x="562" y="33">Plot2 title</tspan>
  </text>
  <text font-size="12.8" style="fill: #000000;text-anchor:start;font-family:sans-serif;font-style:normal;font-weight:normal" x="340" y="340">
    <tspan x="340" y="340"></tspan>
  </text>
  <g>
    <polygon style="fill: #ffffff" points="535,630 535,620 530,620 540,610 550,620 545,620 545,630 "/>
    <polygon style="fill: none; fill-opacity:0; stroke-width: 2; stroke: #000000" points="535,630 535,620 530,620 540,610 550,620 545,620 545,630 "/>
    <polygon style="fill: none; fill-opacity:0; stroke-width: 2; stroke: #000000" points="535,630 535,620 530,620 540,610 550,620 545,620 545,630 "/>
  </g>
  <g>
    <polygon style="fill: #ffffff" points="295.176,317.529 285.059,317.529 285.059,315 280,320.059 285.059,325.117 285.059,322.588 295.176,322.588 295.176,325.117 300.234,320.059 295.176,315 "/>
    <polygon style="fill: none; fill-opacity:0; stroke-width: 2; stroke: #000000" points="295.176,317.529 285.059,317.529 285.059,315 280,320.059 285.059,325.117 285.059,322.588 295.176,322.588 295.176,325.117 300.234,320.059 295.176,315 "/>
    <polygon style="fill: none; fill-opacity:0; stroke-width: 2; stroke: #000000" points="295.176,317.529 285.059,317.529 285.059,315 280,320.059 285.059,325.117 285.059,322.588 295.176,322.588 295.176,325.117 300.234,320.059 295.176,315 "/>
  </g>
  <g>
    <polygon style="fill: #ffffff" points="815.176,319.529 805.059,319.529 805.059,317 800,322.059 805.059,327.117 805.059,324.588 815.176,324.588 815.176,327.117 820.234,322.059 815.176,317 "/>
    <polygon style="fill: none; fill-opacity:0; stroke-width: 2; stroke: #000000" points="815.176,319.529 805.059,319.529 805.059,317 800,322.059 805.059,327.117 805.059,324.588 815.176,324.588 815.176,327.117 820.234,322.059 815.176,317 "/>
    <polygon style="fill: none; fill-opacity:0; stroke-width: 2; stroke: #000000" points="815.176,319.529 805.059,319.529 805.059,317 800,322.059 805.059,327.117 805.059,324.588 815.176,324.588 815.176,327.117 820.234,322.059 815.176,317 "/>
  </g>
</svg>
